# xmcd CD Database Entry
#
# Track frame offsets:
# 150
# 15812
# 39345
# 60337
# 78447
# 96615
# 117202
# 142805
# 159740
# 182127
# 202752
# 220067
# 239345
# 255145
#
# Disc length: 3706 seconds
#
# Revision: 2
# Processed by: cddbd v1.4PL0 Copyright (c) Steve Scherf et al.
# Submitted via: tcd 2.0b
#
DISCID=a70e780e
DTITLE=Blueass Blues Band/Crossing
DYEAR=1900
DGENRE=
TTITLE0=Like a Bluesmachine
TTITLE1=The blues is still alive
TTITLE2=Miss you so much
TTITLE3=Behind the smoke
TTITLE4=You hurt me
TTITLE5=Blues for ye', baby
TTITLE6=Hard rain
TTITLE7=Coming home to me
TTITLE8=Can't be cool
TTITLE9=The love train
TTITLE10=Be my baby one more time
TTITLE11=You can't change the world
TTITLE12=Find my baby
TTITLE13=Life is a mystery
EXTD=
EXTT0=
EXTT1=
EXTT2=
EXTT3=
EXTT4=
EXTT5=
EXTT6=
EXTT7=
EXTT8=
EXTT9=
EXTT10=
EXTT11=
EXTT12=
EXTT13=
PLAYORDER=
